# xmcd
#
# Track frame offsets: 
#        150
#        10466
#        20325
#        30443
#        39662
#        49619
#        61031
#        71527
#        82107
#        92193
#        101678
#        112628
#        124219
#        135729
#        147711
#        158108
#        168056
#        177997
#        189120
#        200424
#        212517
#        221984
#        231844
#        246172
#        256246
#        266856
#        276864
#        286817
#        296844
#        305928
#
# Disc length: 4188 seconds
#
# Revision: 5
# Processed by: cddbd v1.5.2PL0 Copyright (c) Steve Scherf et al.
# Submitted via: ExactAudioCopy v1.3
#
DISCID=bf105a1e
DTITLE=Buck Owens and his Buckaroos - Tall Dark Stranger_CD4
DYEAR=2012
DGENRE=Country
TTITLE0=The Buckaroos - Ring of Fire
TTITLE1=The Buckaroos - Last Date
TTITLE2=The Buckaroos - El Paso
TTITLE3=The Buckaroos - King of the Road
TTITLE4=The Buckaroos - Orange Blossom Special
TTITLE5=The Buckaroos - Tall Dark Stranger
TTITLE6=The Buckaroos - Detroit City
TTITLE7=The Buckaroos - Gentle On My Mind
TTITLE8=The Buckaroos - It's Such a Pretty World Today
TTITLE9=The Buckaroos - Okie from Muskogee
TTITLE10=Buck Owens - Ruby (Are You Mad)
TTITLE11=Buck Owens - Heartbreak Mountain
TTITLE12=Buck Owens - Uncle Pen
TTITLE13=Buck Owens - Corn Liquor
TTITLE14=Buck Owens - Rollin' in My Sweet Baby's Arms
TTITLE15=Buck Owens - I Know You're Married But I Love You Still
TTITLE16=Buck Owens - Ashes of Love
TTITLE17=Buck Owens - Ole Slew Foot
TTITLE18=Buck Owens - Rocky Top
TTITLE19=Buck Owens - Salty Dog Blues
TTITLE20=Buck Owens - One of Everything You Got
TTITLE21=Buck Owens - Home On Christmas Day
TTITLE22=Buck Owens - All I Want for Christmas Is My Daddy
TTITLE23=Buck Owens - A Very Merry Christmas
TTITLE24=Buck Owens - It's Not What You Give
TTITLE25=Buck Owens - Good Old Fashioned Country Christmas
TTITLE26=Buck Owens - Christmas Ain't Christmas Dear Without You
TTITLE27=Buck Owens - Santa Looked a Lot Like Daddy
TTITLE28=Buck Owens - Santa's Gonna Come in a Stagecoach
TTITLE29=Buck Owens - Tomorrow Is Christmas Day
EXTD=
EXTT0=
EXTT1=
EXTT2=
EXTT3=
EXTT4=
EXTT5=
EXTT6=
EXTT7=
EXTT8=
EXTT9=
EXTT10=
EXTT11=
EXTT12=
EXTT13=
EXTT14=
EXTT15=
EXTT16=
EXTT17=
EXTT18=
EXTT19=
EXTT20=
EXTT21=
EXTT22=
EXTT23=
EXTT24=
EXTT25=
EXTT26=
EXTT27=
EXTT28=
EXTT29=
PLAYORDER=
